<?xml version="1.0" standalone="no"?>
<!DOCTYPE svg PUBLIC "-//W3C//DTD SVG 20010904//EN" "http://www.w3.org/TR/2001/REC-SVG-20010904/DTD/svg10.dtd">
<svg version="1.0" xmlns="http://www.w3.org/2000/svg"
    width="700pt" height="700pt" viewBox="0 0 700 700"
    preserveAspectRatio="xMidYMid meet">
    <metadata>
        Created by ChatterMate
    </metadata>
    <g transform="translate(0.000000,700.000000) scale(0.100000,-0.100000)" 
        fill="#000000" stroke="none">
        <!-- Chat bubble outline -->
        <path d="M1500 5500 c-150 0 -300 -150 -300 -300 l0 -2900 c0 -150 150 -300 
            300 -300 l1200 0 600 -900 600 900 1600 0 c150 0 300 150 300 300 l0 2900 
            c0 150 -150 300 -300 300 l-4000 0z m3800 -300 l0 -2600 -1500 0 -500 
            -750 -500 750 -1100 0 0 2600 3600 0z"/>
        <!-- Letter C -->
        <path d="M3200 4000 c-400 0 -800 -400 -800 -800 0 -400 400 -800 800 -800 
            300 0 700 300 700 300 l0 400 c0 0 -350 -150 -550 -150 -300 0 -500 100 
            -500 250 0 150 200 250 500 250 200 0 550 -150 550 -150 l0 400 c0 0 
            -400 300 -700 300z"/>
    </g>
</svg> 